<svg width="845" height="373" viewBox="0 0 845 373" fill="none" xmlns="http://www.w3.org/2000/svg">
<rect x="0.046875" y="193.558" width="17.5361" height="41.224" rx="6" fill="black"/>
<rect x="250.611" y="193.558" width="17.5361" height="41.224" rx="6" fill="black"/>
<path fill-rule="evenodd" clip-rule="evenodd" d="M24.583 326.194V360.422C24.583 367.049 29.9556 372.422 36.583 372.422H49.0371C55.6645 372.422 61.0371 367.049 61.0371 360.422V340.8L24.583 326.194Z" fill="black"/>
<path fill-rule="evenodd" clip-rule="evenodd" d="M243.611 326.194V360.422C243.611 367.049 238.239 372.422 231.611 372.422H219.157C212.53 372.422 207.157 367.049 207.157 360.422V340.8L243.611 326.194Z" fill="black"/>
<path fill-rule="evenodd" clip-rule="evenodd" d="M21.583 39.3854C21.583 25.2016 31.5205 12.9672 45.4885 10.5026C69.3667 6.28947 106.405 0.670044 134.097 0.670044C161.788 0.670044 198.827 6.2895 222.705 10.5026C236.673 12.9672 246.61 25.2015 246.61 39.3852L246.611 311.405C246.611 316.212 243.742 320.556 239.32 322.442L190.354 343.332H175.842C175.35 347.226 172.026 350.237 167.999 350.237H100.195C96.1681 350.237 92.8442 347.226 92.3527 343.332H77.8407L28.8751 322.442C24.4532 320.556 21.5839 316.212 21.5839 311.405L21.583 39.3854ZM38.8163 52.2257C38.8163 44.4937 45.0843 38.2257 52.8163 38.2257H113.855C121.587 38.2257 127.855 44.4937 127.855 52.2257V77.8991C127.855 85.6311 121.587 91.8991 113.855 91.8991H52.8163C45.0843 91.8991 38.8163 85.6311 38.8163 77.8991V52.2257ZM154.338 38.2257C146.606 38.2257 140.338 44.4937 140.338 52.2257V77.8991C140.338 85.6311 146.606 91.8991 154.338 91.8991H215.377C223.109 91.8991 229.377 85.6311 229.377 77.8991V52.2257C229.377 44.4937 223.109 38.2257 215.377 38.2257H154.338ZM92.2333 108.322C92.2333 103.904 95.815 100.322 100.233 100.322H109.862C114.28 100.322 117.862 103.904 117.862 108.322V122.178C117.862 126.596 114.28 130.178 109.862 130.178H100.233C95.815 130.178 92.2333 126.596 92.2333 122.178V108.322ZM100.139 138.915C95.7726 138.915 92.2333 142.455 92.2333 146.821C92.2333 151.187 95.7726 154.726 100.139 154.726H175.864C180.23 154.726 183.769 151.187 183.769 146.821C183.769 142.455 180.23 138.915 175.864 138.915H100.139ZM128.848 108.322C128.848 103.904 132.429 100.322 136.848 100.322H175.769C180.188 100.322 183.769 103.904 183.769 108.322V122.178C183.769 126.596 180.188 130.178 175.769 130.178H136.848C132.429 130.178 128.848 126.596 128.848 122.178V108.322ZM33.5124 169.464C31.6324 169.464 30.1084 170.988 30.1084 172.868C30.1084 174.748 31.6324 176.272 33.5124 176.272H234.68C236.56 176.272 238.084 174.748 238.084 172.868C238.084 170.988 236.56 169.464 234.68 169.464H33.5124ZM67.7284 292.904C67.7284 301.504 60.7563 308.476 52.1557 308.476C43.5551 308.476 36.583 301.504 36.583 292.904C36.583 284.303 43.5551 277.331 52.1557 277.331C60.7563 277.331 67.7284 284.303 67.7284 292.904ZM216.039 308.476C224.639 308.476 231.611 301.504 231.611 292.904C231.611 284.303 224.639 277.331 216.039 277.331C207.438 277.331 200.466 284.303 200.466 292.904C200.466 301.504 207.438 308.476 216.039 308.476ZM37.9004 201.797C37.9004 196.274 42.3775 191.797 47.9004 191.797H109.715C115.238 191.797 119.715 196.274 119.715 201.797V232.931C119.715 238.454 115.238 242.931 109.715 242.931H47.9004C42.3775 242.931 37.9004 238.454 37.9004 232.931V201.797ZM138.082 191.797C132.559 191.797 128.082 196.274 128.082 201.797V232.931C128.082 238.454 132.559 242.931 138.082 242.931H161.293C171.069 243.256 184.005 253.703 189.777 258.822C191.741 260.564 194.252 261.595 196.877 261.595H218.109C223.632 261.595 228.109 257.118 228.109 251.595V236.871C228.109 236.123 228.027 235.395 227.872 234.693C227.973 234.121 228.026 233.533 228.026 232.931V201.797C228.026 196.274 223.549 191.797 218.026 191.797H138.082ZM97.9531 341.096C97.9531 339.439 99.2963 338.096 100.953 338.096H167.317C168.974 338.096 170.317 339.439 170.317 341.096V345.198C170.317 346.855 168.974 348.198 167.317 348.198H100.953C99.2963 348.198 97.9531 346.855 97.9531 345.198V341.096ZM102.793 256.484C91.7473 256.484 82.793 265.438 82.793 276.484V324.118C82.793 328.537 86.3747 332.118 90.793 332.118H177.4C181.819 332.118 185.4 328.537 185.4 324.118V276.484C185.4 265.438 176.446 256.484 165.4 256.484H102.793Z" fill="black"/>
<path d="M138.096 267.968H169.289C175.917 267.968 181.289 273.341 181.289 279.968V322.884C181.289 326.197 178.603 328.884 175.289 328.884H141.399C137.969 328.884 135.237 326.014 135.406 322.588L138.096 267.968Z" fill="black"/>
<path d="M130.096 267.968H98.9022C92.2748 267.968 86.9022 273.341 86.9022 279.968V322.884C86.9022 326.197 89.5885 328.884 92.9022 328.884H126.793C130.222 328.884 132.954 326.014 132.786 322.588L130.096 267.968Z" fill="black"/>
<rect x="288.147" y="193.558" width="17.5361" height="41.224" rx="6" fill="black"/>
<rect x="538.712" y="193.558" width="17.5361" height="41.224" rx="6" fill="black"/>
<path fill-rule="evenodd" clip-rule="evenodd" d="M312.684 326.194V360.422C312.684 367.049 318.056 372.422 324.684 372.422H337.138C343.765 372.422 349.138 367.049 349.138 360.422V340.8L312.684 326.194Z" fill="black"/>
<path fill-rule="evenodd" clip-rule="evenodd" d="M531.712 326.194V360.422C531.712 367.049 526.339 372.422 519.712 372.422H507.258C500.63 372.422 495.258 367.049 495.258 360.422V340.8L531.712 326.194Z" fill="black"/>
<path fill-rule="evenodd" clip-rule="evenodd" d="M309.684 39.3854C309.684 25.2016 319.621 12.9672 333.589 10.5026C357.467 6.28947 394.506 0.670044 422.197 0.670044C449.888 0.670044 486.927 6.2895 510.805 10.5026C524.773 12.9672 534.711 25.2015 534.711 39.3852L534.712 311.405C534.712 316.212 531.843 320.556 527.421 322.442L478.455 343.332H463.942C463.451 347.226 460.127 350.237 456.1 350.237H388.296C384.269 350.237 380.945 347.226 380.453 343.332H365.941L316.976 322.442C312.554 320.556 309.684 316.212 309.684 311.405L309.684 39.3854ZM326.917 52.2257C326.917 44.4937 333.185 38.2257 340.917 38.2257H401.956C409.688 38.2257 415.956 44.4937 415.956 52.2257V77.8991C415.956 85.6311 409.688 91.8991 401.956 91.8991H340.917C333.185 91.8991 326.917 85.6311 326.917 77.8991V52.2257ZM442.438 38.2257C434.706 38.2257 428.438 44.4937 428.438 52.2257V77.8991C428.438 85.6311 434.706 91.8991 442.438 91.8991H503.477C511.209 91.8991 517.477 85.6311 517.477 77.8991V52.2257C517.477 44.4937 511.209 38.2257 503.477 38.2257H442.438ZM380.334 108.322C380.334 103.904 383.916 100.322 388.334 100.322H397.963C402.381 100.322 405.963 103.904 405.963 108.322V122.178C405.963 126.596 402.381 130.178 397.963 130.178H388.334C383.916 130.178 380.334 126.596 380.334 122.178V108.322ZM388.239 138.915C383.873 138.915 380.334 142.455 380.334 146.821C380.334 151.187 383.873 154.726 388.239 154.726H463.965C468.331 154.726 471.87 151.187 471.87 146.821C471.87 142.455 468.331 138.915 463.965 138.915H388.239ZM416.948 108.322C416.948 103.904 420.53 100.322 424.948 100.322H463.87C468.288 100.322 471.87 103.904 471.87 108.322V122.178C471.87 126.596 468.288 130.178 463.87 130.178H424.948C420.53 130.178 416.948 126.596 416.948 122.178V108.322ZM321.613 169.464C319.733 169.464 318.209 170.988 318.209 172.868C318.209 174.748 319.733 176.272 321.613 176.272H522.781C524.661 176.272 526.185 174.748 526.185 172.868C526.185 170.988 524.661 169.464 522.781 169.464H321.613ZM355.829 292.904C355.829 301.504 348.857 308.476 340.256 308.476C331.656 308.476 324.684 301.504 324.684 292.904C324.684 284.303 331.656 277.331 340.256 277.331C348.857 277.331 355.829 284.303 355.829 292.904ZM504.139 308.476C512.74 308.476 519.712 301.504 519.712 292.904C519.712 284.303 512.74 277.331 504.139 277.331C495.539 277.331 488.566 284.303 488.566 292.904C488.566 301.504 495.539 308.476 504.139 308.476ZM326.001 201.797C326.001 196.274 330.478 191.797 336.001 191.797H397.815C403.338 191.797 407.815 196.274 407.815 201.797V232.931C407.815 238.454 403.338 242.931 397.815 242.931H336.001C330.478 242.931 326.001 238.454 326.001 232.931V201.797ZM426.183 191.797C420.66 191.797 416.183 196.274 416.183 201.797V232.931C416.183 238.454 420.66 242.931 426.183 242.931H449.394C459.17 243.256 472.106 253.703 477.878 258.822C479.842 260.564 482.352 261.595 484.977 261.595H506.21C511.733 261.595 516.21 257.118 516.21 251.595V236.871C516.21 236.123 516.128 235.395 515.972 234.693C516.074 234.121 516.127 233.533 516.127 232.931V201.797C516.127 196.274 511.65 191.797 506.127 191.797H426.183ZM386.054 341.096C386.054 339.439 387.397 338.096 389.054 338.096H455.418C457.075 338.096 458.418 339.439 458.418 341.096V345.198C458.418 346.855 457.075 348.198 455.418 348.198H389.054C387.397 348.198 386.054 346.855 386.054 345.198V341.096ZM390.894 256.484C379.848 256.484 370.894 265.438 370.894 276.484V324.118C370.894 328.537 374.475 332.118 378.894 332.118H465.501C469.919 332.118 473.501 328.537 473.501 324.118V276.484C473.501 265.438 464.547 256.484 453.501 256.484H390.894Z" fill="black"/>
<path d="M426.196 267.968H457.39C464.017 267.968 469.39 273.341 469.39 279.968V322.884C469.39 326.197 466.704 328.884 463.39 328.884H429.499C426.07 328.884 423.338 326.014 423.506 322.588L426.196 267.968Z" fill="black"/>
<path d="M418.196 267.968H387.003C380.375 267.968 375.003 273.341 375.003 279.968V322.884C375.003 326.197 377.689 328.884 381.003 328.884H414.893C418.323 328.884 421.055 326.014 420.886 322.588L418.196 267.968Z" fill="black"/>
<rect x="576.248" y="193.558" width="17.5361" height="41.224" rx="6" fill="black"/>
<rect x="826.812" y="193.558" width="17.5361" height="41.224" rx="6" fill="black"/>
<path fill-rule="evenodd" clip-rule="evenodd" d="M600.784 326.194V360.422C600.784 367.049 606.157 372.422 612.784 372.422H625.238C631.866 372.422 637.238 367.049 637.238 360.422V340.8L600.784 326.194Z" fill="black"/>
<path fill-rule="evenodd" clip-rule="evenodd" d="M819.812 326.194V360.422C819.812 367.049 814.44 372.422 807.812 372.422H795.358C788.731 372.422 783.358 367.049 783.358 360.422V340.8L819.812 326.194Z" fill="black"/>
<path fill-rule="evenodd" clip-rule="evenodd" d="M597.784 39.3854C597.784 25.2016 607.722 12.9672 621.69 10.5026C645.568 6.28947 682.607 0.670044 710.298 0.670044C737.989 0.670044 775.028 6.2895 798.906 10.5026C812.874 12.9672 822.811 25.2015 822.812 39.3852L822.812 311.405C822.812 316.212 819.943 320.556 815.521 322.442L766.556 343.332H752.043C751.551 347.226 748.227 350.237 744.2 350.237H676.397C672.369 350.237 669.045 347.226 668.554 343.332H654.042L605.076 322.442C600.654 320.556 597.785 316.212 597.785 311.405L597.784 39.3854ZM615.017 52.2257C615.017 44.4937 621.286 38.2257 629.017 38.2257H690.057C697.789 38.2257 704.057 44.4937 704.057 52.2257V77.8991C704.057 85.6311 697.789 91.8991 690.057 91.8991H629.018C621.286 91.8991 615.017 85.6311 615.017 77.8991V52.2257ZM730.539 38.2257C722.807 38.2257 716.539 44.4937 716.539 52.2257V77.8991C716.539 85.6311 722.807 91.8991 730.539 91.8991H791.578C799.31 91.8991 805.578 85.6311 805.578 77.8991V52.2257C805.578 44.4937 799.31 38.2257 791.578 38.2257H730.539ZM668.434 108.322C668.434 103.904 672.016 100.322 676.434 100.322H686.063C690.482 100.322 694.063 103.904 694.063 108.322V122.178C694.063 126.596 690.482 130.178 686.063 130.178H676.434C672.016 130.178 668.434 126.596 668.434 122.178V108.322ZM676.34 138.915C671.974 138.915 668.434 142.455 668.434 146.821C668.434 151.187 671.974 154.726 676.34 154.726H752.065C756.431 154.726 759.971 151.187 759.971 146.821C759.971 142.455 756.431 138.915 752.065 138.915H676.34ZM705.049 108.322C705.049 103.904 708.63 100.322 713.049 100.322H751.971C756.389 100.322 759.971 103.904 759.971 108.322V122.178C759.971 126.596 756.389 130.178 751.971 130.178H713.049C708.63 130.178 705.049 126.596 705.049 122.178V108.322ZM609.714 169.464C607.834 169.464 606.31 170.988 606.31 172.868C606.31 174.748 607.834 176.272 609.714 176.272H810.881C812.761 176.272 814.285 174.748 814.285 172.868C814.285 170.988 812.761 169.464 810.881 169.464H609.714ZM643.93 292.904C643.93 301.504 636.957 308.476 628.357 308.476C619.756 308.476 612.784 301.504 612.784 292.904C612.784 284.303 619.756 277.331 628.357 277.331C636.957 277.331 643.93 284.303 643.93 292.904ZM792.24 308.476C800.84 308.476 807.812 301.504 807.812 292.904C807.812 284.303 800.84 277.331 792.24 277.331C783.639 277.331 776.667 284.303 776.667 292.904C776.667 301.504 783.639 308.476 792.24 308.476ZM614.102 201.797C614.102 196.274 618.579 191.797 624.102 191.797H685.916C691.439 191.797 695.916 196.274 695.916 201.797V232.931C695.916 238.454 691.439 242.931 685.916 242.931H624.102C618.579 242.931 614.102 238.454 614.102 232.931V201.797ZM714.283 191.797C708.76 191.797 704.283 196.274 704.283 201.797V232.931C704.283 238.454 708.76 242.931 714.283 242.931H737.495C747.27 243.256 760.207 253.703 765.979 258.822C767.942 260.564 770.453 261.595 773.078 261.595H794.311C799.833 261.595 804.311 257.118 804.311 251.595V236.871C804.311 236.123 804.229 235.395 804.073 234.693C804.174 234.121 804.228 233.533 804.228 232.931V201.797C804.228 196.274 799.75 191.797 794.228 191.797H714.283ZM674.154 341.096C674.154 339.439 675.497 338.096 677.154 338.096H743.519C745.175 338.096 746.519 339.439 746.519 341.096V345.198C746.519 346.855 745.175 348.198 743.519 348.198H677.154C675.497 348.198 674.154 346.855 674.154 345.198V341.096ZM678.994 256.484C667.948 256.484 658.994 265.438 658.994 276.484V324.118C658.994 328.537 662.576 332.118 666.994 332.118H753.602C758.02 332.118 761.602 328.537 761.602 324.118V276.484C761.602 265.438 752.647 256.484 741.602 256.484H678.994Z" fill="black"/>
<path d="M714.297 267.968H745.49C752.118 267.968 757.49 273.341 757.49 279.968V322.884C757.49 326.197 754.804 328.884 751.49 328.884H717.6C714.17 328.884 711.438 326.014 711.607 322.588L714.297 267.968Z" fill="black"/>
<path d="M706.297 267.968H675.103C668.476 267.968 663.103 273.341 663.103 279.968V322.884C663.103 326.197 665.79 328.884 669.103 328.884H702.994C706.424 328.884 709.155 326.014 708.987 322.588L706.297 267.968Z" fill="black"/>
</svg>
