<svg width="214" height="165" viewBox="0 0 214 165" fill="none" xmlns="http://www.w3.org/2000/svg">
<path d="M153.2 81.032C160.667 81.032 166.719 87.0683 166.719 94.5171C166.719 101.962 160.667 108 153.2 108C145.732 108 139.679 101.962 139.679 94.5171C139.679 87.0683 145.732 81.032 153.2 81.032ZM153.2 100.911C156.739 100.911 159.609 98.0484 159.609 94.5193C159.609 90.9902 156.739 88.1277 153.2 88.1277C149.66 88.1277 146.79 90.9902 146.79 94.5193C146.79 98.0462 149.66 100.911 153.2 100.911ZM11.4935 8.42874C12.133 3.86014 16.3685 0.154493 20.9493 0.154493L190.015 0C201.927 0 211.584 9.63159 211.584 21.5122V40.7555H7.45488L11.4935 8.42874ZM172.147 19.4706C172.147 20.8412 173.261 21.9536 174.637 21.9536H197.753C198.293 21.9536 199.205 21.4128 199.205 20.5742C199.205 13.1827 192.741 8.0712 183.46 8.0712H174.635C173.258 8.0712 172.145 9.18135 172.145 10.5541L172.147 19.4706ZM139.547 19.4706C139.547 20.8412 140.662 21.9536 142.036 21.9536H165.155C166.529 21.9536 167.644 20.8412 167.644 19.4706V10.5519C167.644 9.18135 166.529 8.06899 165.155 8.06899H142.036C140.662 8.06899 139.547 9.17914 139.547 10.5519V19.4706ZM107.132 19.4706C107.132 20.8412 108.245 21.9536 109.621 21.9536H132.74C134.114 21.9536 135.229 20.8412 135.229 19.4706V10.5519C135.229 9.18135 134.116 8.06899 132.74 8.06899H109.621C108.245 8.06899 107.132 9.17914 107.132 10.5519V19.4706ZM74.7167 19.4706C74.7167 20.8412 75.8321 21.9536 77.2041 21.9536H100.325C101.699 21.9536 102.812 20.8412 102.812 19.4706V10.5519C102.812 9.18135 101.699 8.06899 100.325 8.06899H77.2041C75.8321 8.06899 74.7167 9.17914 74.7167 10.5519V19.4706ZM42.2996 19.4706C42.2996 20.8412 43.4149 21.9536 44.7892 21.9536H67.9098C69.2862 21.9536 70.3993 20.8412 70.3993 19.4706V10.5519C70.3993 9.18135 69.2862 8.06899 67.9098 8.06899H44.7914C43.4171 8.06899 42.3018 9.17914 42.3018 10.5519L42.2996 19.4706ZM14.3459 21.9514H35.455C36.8293 21.9514 37.9446 20.839 37.9446 19.4684V10.5497C37.9446 9.17914 36.8293 8.06679 35.455 8.06679H26.6299C17.3511 8.06679 12.8943 13.1783 12.8943 20.5697C12.892 21.4106 13.806 21.9514 14.3459 21.9514ZM4.90779 69.0565H6.57413L7.1163 45.7213H211.584V94.9298C211.584 96.7573 210.099 98.2404 208.265 98.2404H171.707C171.247 98.2404 170.877 97.8696 170.877 97.4128L170.879 94.5061C170.879 84.7641 162.962 76.8673 153.196 76.8673C143.428 76.8673 135.51 84.7641 135.51 94.5061L135.515 97.4128C135.515 97.8696 135.143 98.2404 134.685 98.2404H41.4698C41.0073 98.2404 40.6355 97.8696 40.6355 97.4128L40.6399 94.5061C40.6399 84.7641 32.7221 76.8673 22.9586 76.8673C13.1886 76.8673 5.27515 84.7641 5.27515 94.5061V95.9142H4.90338C3.07108 95.9142 1.58398 94.4332 1.58398 92.6058V72.3715C1.58841 70.5397 3.07549 69.0565 4.90779 69.0565ZM139.547 64.5365C139.547 65.9071 140.662 67.0194 142.036 67.0194H165.155C166.529 67.0194 167.644 65.9071 167.644 64.5365V55.6156C167.644 54.245 166.529 53.1326 165.155 53.1326H142.036C140.662 53.1326 139.547 54.245 139.547 55.6156V64.5365ZM107.132 64.5365C107.132 65.9071 108.245 67.0194 109.621 67.0194H132.74C134.114 67.0194 135.229 65.9071 135.229 64.5365V55.6156C135.229 54.245 134.116 53.1326 132.74 53.1326H109.621C108.245 53.1326 107.132 54.245 107.132 55.6156V64.5365ZM74.7167 64.5365C74.7167 65.9071 75.8321 67.0194 77.2041 67.0194H100.325C101.699 67.0194 102.812 65.9071 102.812 64.5365V55.6156C102.812 54.245 101.699 53.1326 100.325 53.1326H77.2041C75.8321 53.1326 74.7167 54.245 74.7167 55.6156V64.5365ZM42.2996 64.5365C42.2996 65.9071 43.4149 67.0194 44.7892 67.0194H67.9098C69.2862 67.0194 70.3993 65.9071 70.3993 64.5365V55.6156C70.3993 54.245 69.2862 53.1326 67.9098 53.1326H44.7914C43.4171 53.1326 42.3018 54.245 42.3018 55.6156L42.2996 64.5365ZM26.7759 66.141C26.7759 66.5979 27.1477 66.9687 27.6058 66.9687H37.7011C38.1592 66.9687 38.531 66.5979 38.531 66.141V50.0207C38.531 49.5638 38.1592 49.193 37.7011 49.193H27.6058C27.1477 49.193 26.7759 49.5638 26.7759 50.0207V66.141ZM10.3914 66.2094C10.3914 66.6663 10.7676 67.0371 11.2213 67.0371H23.4433C23.9013 67.0371 24.2709 66.6663 24.2709 66.2094V50.0207C24.2709 49.5638 23.9013 49.193 23.4433 49.193H11.2213C10.7676 49.193 10.3914 49.5638 10.3914 50.0207V66.2094ZM22.9631 81.032C30.4273 81.032 36.4818 87.0683 36.4818 94.5171C36.4818 101.962 30.4273 108 22.9631 108C15.4944 108 9.44431 101.962 9.44431 94.5171C9.44431 87.0683 15.4944 81.032 22.9631 81.032ZM22.9631 100.911C26.5037 100.911 29.3717 98.0484 29.3717 94.5193C29.3717 90.9902 26.5015 88.1277 22.9631 88.1277C19.4246 88.1277 16.5544 90.9902 16.5544 94.5193C16.5544 98.0462 19.4246 100.911 22.9631 100.911Z" fill="black"/>
<path d="M57.385 146.545V164H53.6946V150.048H53.5924L49.5952 152.554V149.281L53.9162 146.545H57.385ZM68.3772 164.384C66.9113 164.378 65.6499 164.017 64.5931 163.301C63.5419 162.585 62.7323 161.548 62.1641 160.19C61.6016 158.832 61.3232 157.199 61.3289 155.29C61.3289 153.386 61.6101 151.764 62.1726 150.423C62.7408 149.082 63.5505 148.062 64.6016 147.364C65.6584 146.659 66.9169 146.307 68.3772 146.307C69.8374 146.307 71.0931 146.659 72.1442 147.364C73.201 148.068 74.0135 149.091 74.5817 150.432C75.1499 151.767 75.4312 153.386 75.4255 155.29C75.4255 157.205 75.1414 158.841 74.5732 160.199C74.0107 161.557 73.2039 162.594 72.1527 163.31C71.1016 164.026 69.8431 164.384 68.3772 164.384ZM68.3772 161.324C69.3772 161.324 70.1755 160.821 70.7721 159.815C71.3687 158.81 71.6641 157.301 71.6584 155.29C71.6584 153.966 71.5221 152.864 71.2493 151.983C70.9823 151.102 70.6016 150.44 70.1073 149.997C69.6187 149.554 69.0419 149.332 68.3772 149.332C67.3829 149.332 66.5874 149.83 65.9908 150.824C65.3942 151.818 65.0931 153.307 65.0874 155.29C65.0874 156.631 65.2209 157.75 65.488 158.648C65.7607 159.54 66.1442 160.21 66.6385 160.659C67.1329 161.102 67.7124 161.324 68.3772 161.324ZM83.6456 164V150.909H87.1059V153.219H87.2593C87.532 152.452 87.9866 151.847 88.6229 151.403C89.2593 150.96 90.0206 150.739 90.907 150.739C91.8047 150.739 92.5689 150.963 93.1996 151.412C93.8303 151.855 94.2508 152.457 94.461 153.219H94.5973C94.8644 152.469 95.3473 151.869 96.0462 151.42C96.7508 150.966 97.5831 150.739 98.5434 150.739C99.765 150.739 100.756 151.128 101.518 151.906C102.285 152.679 102.668 153.776 102.668 155.196V164H99.0462V155.912C99.0462 155.185 98.853 154.639 98.4667 154.276C98.0803 153.912 97.5973 153.73 97.0178 153.73C96.3587 153.73 95.8445 153.94 95.4752 154.361C95.1059 154.776 94.9212 155.324 94.9212 156.006V164H91.4013V155.835C91.4013 155.193 91.2167 154.682 90.8473 154.301C90.4837 153.92 90.0036 153.73 89.407 153.73C89.0036 153.73 88.64 153.832 88.3161 154.037C87.9979 154.236 87.7451 154.517 87.5576 154.881C87.3701 155.239 87.2763 155.659 87.2763 156.142V164H83.6456ZM111.502 164.256C110.156 164.256 108.996 163.983 108.025 163.438C107.059 162.886 106.315 162.108 105.792 161.102C105.269 160.091 105.008 158.895 105.008 157.514C105.008 156.168 105.269 154.986 105.792 153.969C106.315 152.952 107.05 152.159 107.999 151.591C108.954 151.023 110.073 150.739 111.357 150.739C112.221 150.739 113.025 150.878 113.769 151.156C114.519 151.429 115.173 151.841 115.729 152.392C116.292 152.943 116.729 153.636 117.042 154.472C117.354 155.301 117.511 156.273 117.511 157.386V158.384H106.457V156.134H114.093C114.093 155.611 113.979 155.148 113.752 154.744C113.525 154.341 113.21 154.026 112.806 153.798C112.408 153.565 111.945 153.449 111.417 153.449C110.866 153.449 110.377 153.577 109.951 153.832C109.531 154.082 109.201 154.42 108.962 154.847C108.724 155.267 108.602 155.736 108.596 156.253V158.392C108.596 159.04 108.715 159.599 108.954 160.071C109.198 160.543 109.542 160.906 109.985 161.162C110.428 161.418 110.954 161.545 111.562 161.545C111.965 161.545 112.335 161.489 112.67 161.375C113.005 161.261 113.292 161.091 113.531 160.864C113.769 160.636 113.951 160.358 114.076 160.028L117.434 160.25C117.264 161.057 116.914 161.761 116.386 162.364C115.863 162.96 115.187 163.426 114.357 163.761C113.533 164.091 112.582 164.256 111.502 164.256ZM126.843 150.909V153.636H118.96V150.909H126.843ZM120.749 147.773H124.38V159.977C124.38 160.312 124.431 160.574 124.533 160.761C124.636 160.943 124.778 161.071 124.96 161.145C125.147 161.219 125.363 161.256 125.607 161.256C125.778 161.256 125.948 161.241 126.119 161.213C126.289 161.179 126.42 161.153 126.511 161.136L127.082 163.838C126.9 163.895 126.644 163.96 126.315 164.034C125.985 164.114 125.585 164.162 125.113 164.179C124.238 164.213 123.471 164.097 122.812 163.83C122.158 163.562 121.65 163.148 121.286 162.585C120.923 162.023 120.744 161.312 120.749 160.455V147.773ZM129.208 164V150.909H132.728V153.193H132.864C133.103 152.381 133.504 151.767 134.066 151.352C134.629 150.932 135.276 150.722 136.009 150.722C136.191 150.722 136.387 150.733 136.597 150.756C136.808 150.778 136.992 150.81 137.151 150.849V154.071C136.981 154.02 136.745 153.974 136.444 153.935C136.143 153.895 135.867 153.875 135.617 153.875C135.083 153.875 134.606 153.991 134.185 154.224C133.771 154.452 133.441 154.77 133.197 155.179C132.958 155.588 132.839 156.06 132.839 156.594V164H129.208ZM144.385 164.256C143.038 164.256 141.879 163.983 140.908 163.438C139.942 162.886 139.197 162.108 138.675 161.102C138.152 160.091 137.891 158.895 137.891 157.514C137.891 156.168 138.152 154.986 138.675 153.969C139.197 152.952 139.933 152.159 140.882 151.591C141.837 151.023 142.956 150.739 144.24 150.739C145.104 150.739 145.908 150.878 146.652 151.156C147.402 151.429 148.055 151.841 148.612 152.392C149.175 152.943 149.612 153.636 149.925 154.472C150.237 155.301 150.394 156.273 150.394 157.386V158.384H139.34V156.134H146.976C146.976 155.611 146.862 155.148 146.635 154.744C146.408 154.341 146.092 154.026 145.689 153.798C145.291 153.565 144.828 153.449 144.3 153.449C143.749 153.449 143.26 153.577 142.834 153.832C142.413 154.082 142.084 154.42 141.845 154.847C141.607 155.267 141.484 155.736 141.479 156.253V158.392C141.479 159.04 141.598 159.599 141.837 160.071C142.081 160.543 142.425 160.906 142.868 161.162C143.311 161.418 143.837 161.545 144.445 161.545C144.848 161.545 145.217 161.489 145.553 161.375C145.888 161.261 146.175 161.091 146.413 160.864C146.652 160.636 146.834 160.358 146.959 160.028L150.317 160.25C150.146 161.057 149.797 161.761 149.269 162.364C148.746 162.96 148.07 163.426 147.24 163.761C146.416 164.091 145.465 164.256 144.385 164.256ZM163.655 154.642L160.331 154.847C160.274 154.562 160.152 154.307 159.965 154.08C159.777 153.847 159.53 153.662 159.223 153.526C158.922 153.384 158.561 153.312 158.141 153.312C157.578 153.312 157.104 153.432 156.717 153.67C156.331 153.903 156.138 154.216 156.138 154.608C156.138 154.92 156.263 155.185 156.513 155.401C156.763 155.616 157.192 155.79 157.8 155.92L160.169 156.398C161.442 156.659 162.391 157.08 163.016 157.659C163.641 158.239 163.953 159 163.953 159.943C163.953 160.801 163.7 161.554 163.195 162.202C162.695 162.849 162.007 163.355 161.132 163.719C160.263 164.077 159.26 164.256 158.124 164.256C156.391 164.256 155.01 163.895 153.982 163.173C152.959 162.446 152.359 161.457 152.183 160.207L155.754 160.02C155.862 160.548 156.124 160.952 156.538 161.23C156.953 161.503 157.484 161.639 158.132 161.639C158.769 161.639 159.28 161.517 159.666 161.273C160.058 161.023 160.257 160.702 160.263 160.31C160.257 159.98 160.118 159.71 159.845 159.5C159.572 159.284 159.152 159.119 158.584 159.006L156.317 158.554C155.038 158.298 154.087 157.855 153.462 157.224C152.842 156.594 152.533 155.79 152.533 154.812C152.533 153.972 152.76 153.247 153.215 152.639C153.675 152.031 154.32 151.562 155.149 151.233C155.984 150.903 156.962 150.739 158.081 150.739C159.734 150.739 161.036 151.088 161.984 151.787C162.939 152.486 163.496 153.437 163.655 154.642Z" fill="black"/>
<path d="M0.522836 125.939C-0.0629505 126.525 -0.0629505 127.475 0.522836 128.061L10.0688 137.607C10.6546 138.192 11.6043 138.192 12.1901 137.607C12.7759 137.021 12.7759 136.071 12.1901 135.485L3.70482 127L12.1901 118.515C12.7759 117.929 12.7759 116.979 12.1901 116.393C11.6043 115.808 10.6546 115.808 10.0688 116.393L0.522836 125.939ZM212.644 128.061C213.23 127.475 213.23 126.525 212.644 125.939L203.098 116.393C202.512 115.808 201.563 115.808 200.977 116.393C200.391 116.979 200.391 117.929 200.977 118.515L209.462 127L200.977 135.485C200.391 136.071 200.391 137.021 200.977 137.607C201.563 138.192 202.512 138.192 203.098 137.607L212.644 128.061ZM1.5835 128.5H211.583V125.5H1.5835V128.5Z" fill="black"/>
</svg>
